<svg width="500" height="401" viewBox="0 0 500 401" fill="none" xmlns="http://www.w3.org/2000/svg">
<g clip-path="url(#clip0_1_3)">
<path d="M357.812 100.467C357.812 100.467 349.708 93.5812 337.984 89.7516C334.736 78.8109 326.659 71.0672 317.209 71.0672C313.155 71.0672 309.353 72.4969 306.067 75C309.831 77.8641 312.883 82.1297 314.847 87.2531H264.236V40.2656C269.758 42.0891 274.356 44.925 277.436 48.4125C280.136 45.3703 281.673 41.8359 281.673 38.0625C281.673 29.2969 273.325 21.8016 261.541 18.7875C257.416 7.89844 249.995 0.375 249.995 0.375C249.995 0.375 242.58 7.89844 238.45 18.7875C226.666 21.8062 218.322 29.2969 218.322 38.0625C218.322 41.8359 219.859 45.3703 222.559 48.4125C225.639 44.925 230.242 42.0844 235.759 40.2656V87.2484H185.153C187.113 82.1203 190.173 77.8594 193.923 74.9953C190.652 72.4922 186.845 71.0625 182.781 71.0625C173.331 71.0625 165.269 78.8062 162.011 89.7469C150.292 93.5813 142.188 100.467 142.188 100.467C142.188 100.467 150.292 107.358 162.011 111.187C165.264 122.128 173.331 129.877 182.781 129.877C186.845 129.877 190.652 128.442 193.923 125.939C190.173 123.075 187.113 118.809 185.153 113.681H235.764V168.319V241.734C230.242 239.916 225.644 237.075 222.564 233.597C219.864 236.634 218.327 240.169 218.327 243.937C218.327 252.703 226.67 260.203 238.455 263.212C242.58 274.106 249.995 281.625 249.995 281.625C249.995 281.625 257.416 274.106 261.545 263.212C273.33 260.198 281.678 252.703 281.678 243.937C281.678 240.169 280.141 236.634 277.441 233.597C274.361 237.075 269.758 239.92 264.241 241.734V168.319V113.681H314.852C312.887 118.809 309.836 123.075 306.072 125.939C309.358 128.442 313.159 129.877 317.214 129.877C326.664 129.877 334.736 122.128 337.989 111.187C349.708 107.353 357.812 100.467 357.812 100.467Z" fill="#6B1E1E"/>
<path d="M74.5988 343.58C75.3268 343.58 75.9568 343.328 76.4888 342.824C77.0208 342.32 77.3008 341.704 77.3288 340.976V330.266H64.0988V341.06C64.0988 344.42 63.2448 347.094 61.5368 349.082C60.1928 350.65 58.2608 351.434 55.7408 351.434C54.9288 351.434 54.0468 351.336 53.0948 351.14L53.0108 350.72C55.0828 349.852 56.4128 348.564 57.0008 346.856C57.5328 345.4 57.7988 343.468 57.7988 341.06V317.624C57.7708 316.896 57.4908 316.28 56.9588 315.776C56.4548 315.272 55.8388 315.02 55.1108 315.02H54.5648V314.6H67.3328V315.02H66.7868C65.7788 315.02 65.0228 315.44 64.5188 316.28C64.2668 316.672 64.1268 317.12 64.0988 317.624V328.46H77.3288V318.38C77.3288 315.104 78.3508 312.5 80.3948 310.568C82.0188 308.972 84.0628 308.174 86.5268 308.174C87.0868 308.174 87.6748 308.216 88.2908 308.3L88.3748 308.72C86.3308 309.448 85.0008 310.736 84.3848 312.584C83.8808 314.096 83.6148 316.028 83.5868 318.38V340.934C83.6148 341.942 84.0628 342.698 84.9308 343.202C85.3508 343.454 85.8128 343.58 86.3168 343.58H86.8208V344H74.0948V343.58H74.5988ZM90.7905 343.58C91.5185 343.58 92.1345 343.328 92.6385 342.824C93.1705 342.292 93.4505 341.662 93.4785 340.934V317.54C93.3945 316.56 92.9325 315.832 92.0925 315.356C91.6725 315.132 91.2385 315.02 90.7905 315.02H90.2445V314.6H106.33C107.198 314.6 108.15 314.516 109.186 314.348C110.222 314.18 110.95 314.012 111.37 313.844V321.194H110.95V320.69C110.95 319.43 110.572 318.422 109.816 317.666C109.088 316.882 108.094 316.462 106.834 316.406H99.7785V328.628H105.322C106.358 328.6 107.212 328.25 107.884 327.578C108.556 326.878 108.892 326.024 108.892 325.016V324.638H109.312V334.34H108.892V334.004C108.892 332.604 108.332 331.568 107.212 330.896C106.652 330.588 106.036 330.42 105.364 330.392H99.7785V342.194H105.28C107.324 342.194 109.032 341.606 110.404 340.43C111.804 339.254 112.84 337.588 113.512 335.432H113.932L112 344H90.2445V343.58H90.7905ZM128.169 316.448H126.363C126.307 316.448 126.265 316.448 126.237 316.448V340.934C126.265 341.97 126.713 342.74 127.581 343.244C128.001 343.468 128.449 343.58 128.925 343.58H129.471V344H116.703V343.58H117.249C118.257 343.58 119.027 343.146 119.559 342.278C119.783 341.886 119.909 341.452 119.937 340.976V317.666C119.909 316.938 119.629 316.322 119.097 315.818C118.593 315.286 117.977 315.02 117.249 315.02H116.703V314.6H131.109C133.825 314.6 136.121 315.188 137.997 316.364C138.949 316.952 139.705 317.778 140.265 318.842C140.825 319.878 141.105 321.068 141.105 322.412C141.105 323.728 140.867 324.946 140.391 326.066C139.943 327.186 139.173 328.166 138.081 329.006C137.017 329.846 135.729 330.35 134.217 330.518C135.841 331.05 137.269 332.282 138.501 334.214C141.525 339.058 143.765 341.942 145.221 342.866C145.949 343.314 146.859 343.552 147.951 343.58V344H143.835C141.455 344 139.467 343.678 137.871 343.034C136.275 342.362 134.973 341.228 133.965 339.632C133.461 338.82 132.817 337.602 132.033 335.978C131.249 334.326 130.731 333.15 130.479 332.45C129.723 330.77 128.771 329.832 127.623 329.636V329.216H128.925C130.185 329.216 131.291 328.838 132.243 328.082C133.223 327.326 133.881 326.094 134.217 324.386C134.329 323.798 134.385 323.336 134.385 323C134.385 320.704 133.923 319.052 132.999 318.044C132.075 317.008 130.885 316.476 129.429 316.448C129.149 316.448 128.729 316.448 128.169 316.448ZM185.758 343.58H186.43V344H173.83V343.622H174.46C174.936 343.622 175.342 343.44 175.678 343.076C176.014 342.684 176.154 342.264 176.098 341.816L174.46 326.57L166.564 340.178C165.528 341.914 164.996 343.468 164.968 344.84H164.548L153.754 326.696L152.116 341.816C152.06 342.264 152.2 342.684 152.536 343.076C152.872 343.44 153.278 343.622 153.754 343.622H154.384V344H145.606V343.58H146.278C147.062 343.58 147.734 343.342 148.294 342.866C148.882 342.39 149.232 341.746 149.344 340.934L152.83 314.012H153.208L166.228 335.432L178.744 314.012H179.122L182.692 340.934C182.832 341.746 183.182 342.39 183.742 342.866C184.33 343.342 185.002 343.58 185.758 343.58ZM217.012 343.58H217.39V344H203.992V343.58H204.37C204.986 343.58 205.434 343.398 205.714 343.034C206.022 342.642 206.176 342.278 206.176 341.942C206.176 341.606 206.106 341.27 205.966 340.934L203.908 335.768H194.08L191.896 340.934C191.756 341.298 191.686 341.648 191.686 341.984C191.686 342.292 191.826 342.642 192.106 343.034C192.414 343.398 192.89 343.58 193.534 343.58H193.87V344H184.882V343.58H185.26C185.904 343.58 186.548 343.384 187.192 342.992C187.836 342.6 188.368 342.012 188.788 341.228L198.49 319.262C199.806 316.49 200.506 314.656 200.59 313.76H200.968L213.442 341.144C213.862 341.956 214.394 342.572 215.038 342.992C215.682 343.384 216.34 343.58 217.012 343.58ZM194.794 334.004H203.194L199.12 323.672L194.794 334.004ZM250.394 315.02C249.694 315.02 249.092 315.272 248.588 315.776C248.084 316.252 247.818 316.84 247.79 317.54V339.212C247.79 341.088 247.916 342.67 248.168 343.958L248.294 344.588H247.916L226.706 324.386V341.06C226.706 341.76 226.958 342.362 227.462 342.866C227.966 343.342 228.568 343.58 229.268 343.58H230.066V344H217.34V343.58H218.096C218.824 343.58 219.44 343.342 219.944 342.866C220.448 342.362 220.7 341.746 220.7 341.018V319.22C220.7 317.372 220.574 315.832 220.322 314.6L220.238 313.97H220.616L241.826 334.172V317.582C241.798 316.854 241.532 316.252 241.028 315.776C240.524 315.272 239.922 315.02 239.222 315.02H238.466V314.6H251.192V315.02H250.394ZM269.266 314.6C274.222 314.6 278.142 315.916 281.026 318.548C283.91 321.18 285.352 324.764 285.352 329.3C285.352 333.836 283.91 337.42 281.026 340.052C278.142 342.684 274.222 344 269.266 344H254.02V343.58H254.566C255.294 343.58 255.91 343.328 256.414 342.824C256.946 342.292 257.226 341.662 257.254 340.934V317.414C257.17 316.742 256.876 316.182 256.372 315.734C255.868 315.258 255.266 315.02 254.566 315.02H254.02V314.6H269.266ZM268.72 342.236C270.736 342.236 272.472 341.718 273.928 340.682C275.412 339.618 276.546 338.12 277.33 336.188C278.114 334.228 278.506 331.932 278.506 329.3C278.506 325.324 277.624 322.174 275.86 319.85C274.124 317.526 271.744 316.364 268.72 316.364H263.554V342.236H268.72ZM316.68 343.58H317.058V344H303.66V343.58H304.038C304.654 343.58 305.102 343.398 305.382 343.034C305.69 342.642 305.844 342.278 305.844 341.942C305.844 341.606 305.774 341.27 305.634 340.934L303.576 335.768H293.748L291.564 340.934C291.424 341.298 291.354 341.648 291.354 341.984C291.354 342.292 291.494 342.642 291.774 343.034C292.082 343.398 292.558 343.58 293.202 343.58H293.538V344H284.55V343.58H284.928C285.572 343.58 286.216 343.384 286.86 342.992C287.504 342.6 288.036 342.012 288.456 341.228L298.158 319.262C299.474 316.49 300.174 314.656 300.258 313.76H300.636L313.11 341.144C313.53 341.956 314.062 342.572 314.706 342.992C315.35 343.384 316.008 343.58 316.68 343.58ZM294.462 334.004H302.862L298.788 323.672L294.462 334.004ZM332.758 314.6C337.714 314.6 341.634 315.916 344.518 318.548C347.402 321.18 348.844 324.764 348.844 329.3C348.844 333.836 347.402 337.42 344.518 340.052C341.634 342.684 337.714 344 332.758 344H317.512V343.58H318.058C318.786 343.58 319.402 343.328 319.906 342.824C320.438 342.292 320.718 341.662 320.746 340.934V317.414C320.662 316.742 320.368 316.182 319.864 315.734C319.36 315.258 318.758 315.02 318.058 315.02H317.512V314.6H332.758ZM332.212 342.236C334.228 342.236 335.964 341.718 337.42 340.682C338.904 339.618 340.038 338.12 340.822 336.188C341.606 334.228 341.998 331.932 341.998 329.3C341.998 325.324 341.116 322.174 339.352 319.85C337.616 317.526 335.236 316.364 332.212 316.364H327.046V342.236H332.212ZM378.203 314.6C383.159 314.6 387.079 315.916 389.963 318.548C392.847 321.18 394.289 324.764 394.289 329.3C394.289 333.836 392.847 337.42 389.963 340.052C387.079 342.684 383.159 344 378.203 344H362.957V343.58H363.503C364.231 343.58 364.847 343.328 365.351 342.824C365.883 342.292 366.163 341.662 366.191 340.934V317.414C366.107 316.742 365.813 316.182 365.309 315.734C364.805 315.258 364.203 315.02 363.503 315.02H362.957V314.6H378.203ZM377.657 342.236C379.673 342.236 381.409 341.718 382.865 340.682C384.349 339.618 385.483 338.12 386.267 336.188C387.051 334.228 387.443 331.932 387.443 329.3C387.443 325.324 386.561 322.174 384.797 319.85C383.061 317.526 380.681 316.364 377.657 316.364H372.491V342.236H377.657ZM397.464 343.58C398.192 343.58 398.808 343.328 399.312 342.824C399.844 342.292 400.124 341.662 400.152 340.934V317.54C400.068 316.56 399.606 315.832 398.766 315.356C398.346 315.132 397.912 315.02 397.464 315.02H396.918V314.6H413.004C413.872 314.6 414.824 314.516 415.86 314.348C416.896 314.18 417.624 314.012 418.044 313.844V321.194H417.624V320.69C417.624 319.43 417.246 318.422 416.49 317.666C415.762 316.882 414.768 316.462 413.508 316.406H406.452V328.628H411.996C413.032 328.6 413.886 328.25 414.558 327.578C415.23 326.878 415.566 326.024 415.566 325.016V324.638H415.986V334.34H415.566V334.004C415.566 332.604 415.006 331.568 413.886 330.896C413.326 330.588 412.71 330.42 412.038 330.392H406.452V342.194H411.954C413.998 342.194 415.706 341.606 417.078 340.43C418.478 339.254 419.514 337.588 420.186 335.432H420.606L418.674 344H396.918V343.58H397.464ZM423.796 343.58C424.524 343.58 425.14 343.328 425.644 342.824C426.176 342.292 426.456 341.662 426.484 340.934V317.666C426.456 316.938 426.176 316.322 425.644 315.818C425.14 315.286 424.524 315.02 423.796 315.02H423.25V314.6H436.018L435.976 315.02H435.472C434.744 315.02 434.114 315.286 433.582 315.818C433.05 316.322 432.784 316.938 432.784 317.666V342.194H438.286C440.33 342.194 442.038 341.606 443.41 340.43C444.81 339.254 445.846 337.588 446.518 335.432H446.938L445.006 344H423.25V343.58H423.796ZM13.4273 385.04C13.9033 386.16 14.8833 386.72 16.3673 386.72C18.0473 386.72 19.3913 385.88 20.3993 384.2C21.0993 383.052 21.4493 381.596 21.4493 379.832C21.4493 377.228 20.7633 375.324 19.3913 374.12C18.3553 373.224 17.0393 372.776 15.4433 372.776C15.0793 372.776 14.7013 372.804 14.3093 372.86L11.4953 373.28V397.934C11.4953 398.69 11.7613 399.32 12.2933 399.824C12.8253 400.328 13.4553 400.58 14.1833 400.58H14.7293V401H1.96129V400.58H2.50729C3.23529 400.58 3.85129 400.328 4.35529 399.824C4.88729 399.32 5.16729 398.69 5.19529 397.934V375.548C5.16729 374.82 4.94329 374.246 4.52329 373.826C4.13129 373.406 3.54329 373.196 2.75929 373.196C2.56329 373.196 2.31129 373.21 2.00329 373.238L1.91929 372.86C4.29929 372.664 6.79129 372.342 9.39529 371.894C12.0273 371.418 13.7493 371.124 14.5613 371.012C15.4013 370.9 16.2413 370.844 17.0813 370.844C17.9493 370.844 18.9853 370.942 20.1893 371.138C21.3933 371.306 22.6253 371.712 23.8853 372.356C25.1453 372.972 26.1673 373.896 26.9513 375.128C27.7633 376.472 28.1693 377.998 28.1693 379.706C28.1693 381.386 27.8613 382.87 27.2453 384.158C26.0693 386.622 24.0533 388.19 21.1973 388.862C20.4973 389.03 19.8253 389.114 19.1813 389.114C18.5653 389.114 17.9773 389.058 17.4173 388.946C16.2693 388.778 15.3033 388.386 14.5193 387.77C13.7353 387.154 13.2453 386.3 13.0493 385.208L13.4273 385.04ZM31.8305 400.58C32.5585 400.58 33.1745 400.328 33.6785 399.824C34.2105 399.292 34.4905 398.662 34.5185 397.934V374.54C34.4345 373.56 33.9725 372.832 33.1325 372.356C32.7125 372.132 32.2785 372.02 31.8305 372.02H31.2845V371.6H47.3705C48.2385 371.6 49.1905 371.516 50.2265 371.348C51.2625 371.18 51.9905 371.012 52.4105 370.844V378.194H51.9905V377.69C51.9905 376.43 51.6125 375.422 50.8565 374.666C50.1285 373.882 49.1345 373.462 47.8745 373.406H40.8185V385.628H46.3625C47.3985 385.6 48.2525 385.25 48.9245 384.578C49.5965 383.878 49.9325 383.024 49.9325 382.016V381.638H50.3525V391.34H49.9325V391.004C49.9325 389.604 49.3725 388.568 48.2525 387.896C47.6925 387.588 47.0765 387.42 46.4045 387.392H40.8185V399.194H46.3205C48.3645 399.194 50.0725 398.606 51.4445 397.43C52.8445 396.254 53.8805 394.588 54.5525 392.432H54.9725L53.0405 401H31.2845V400.58H31.8305ZM69.2085 373.448H67.4025C67.3465 373.448 67.3045 373.448 67.2765 373.448V397.934C67.3045 398.97 67.7525 399.74 68.6205 400.244C69.0405 400.468 69.4885 400.58 69.9645 400.58H70.5105V401H57.7425V400.58H58.2885C59.2965 400.58 60.0665 400.146 60.5985 399.278C60.8225 398.886 60.9485 398.452 60.9765 397.976V374.666C60.9485 373.938 60.6685 373.322 60.1365 372.818C59.6325 372.286 59.0165 372.02 58.2885 372.02H57.7425V371.6H72.1485C74.8645 371.6 77.1605 372.188 79.0365 373.364C79.9885 373.952 80.7445 374.778 81.3045 375.842C81.8645 376.878 82.1445 378.068 82.1445 379.412C82.1445 380.728 81.9065 381.946 81.4305 383.066C80.9825 384.186 80.2125 385.166 79.1205 386.006C78.0565 386.846 76.7685 387.35 75.2565 387.518C76.8805 388.05 78.3085 389.282 79.5405 391.214C82.5645 396.058 84.8045 398.942 86.2605 399.866C86.9885 400.314 87.8985 400.552 88.9905 400.58V401H84.8745C82.4945 401 80.5065 400.678 78.9105 400.034C77.3145 399.362 76.0125 398.228 75.0045 396.632C74.5005 395.82 73.8565 394.602 73.0725 392.978C72.2885 391.326 71.7705 390.15 71.5185 389.45C70.7625 387.77 69.8105 386.832 68.6625 386.636V386.216H69.9645C71.2245 386.216 72.3305 385.838 73.2825 385.082C74.2625 384.326 74.9205 383.094 75.2565 381.386C75.3685 380.798 75.4245 380.336 75.4245 380C75.4245 377.704 74.9625 376.052 74.0385 375.044C73.1145 374.008 71.9245 373.476 70.4685 373.448C70.1885 373.448 69.7685 373.448 69.2085 373.448ZM103.706 371.6C108.662 371.6 112.582 372.916 115.466 375.548C118.35 378.18 119.792 381.764 119.792 386.3C119.792 390.836 118.35 394.42 115.466 397.052C112.582 399.684 108.662 401 103.706 401H88.4603V400.58H89.0063C89.7343 400.58 90.3503 400.328 90.8543 399.824C91.3863 399.292 91.6663 398.662 91.6943 397.934V374.414C91.6103 373.742 91.3163 373.182 90.8123 372.734C90.3083 372.258 89.7063 372.02 89.0063 372.02H88.4603V371.6H103.706ZM103.16 399.236C105.176 399.236 106.912 398.718 108.368 397.682C109.852 396.618 110.986 395.12 111.77 393.188C112.554 391.228 112.946 388.932 112.946 386.3C112.946 382.324 112.064 379.174 110.3 376.85C108.564 374.526 106.184 373.364 103.16 373.364H97.9943V399.236H103.16ZM139.948 368.618L139.654 368.324C140.858 366.252 142.874 363.956 145.702 361.436C147.074 362.136 148.026 363.27 148.558 364.838C145.674 366.686 142.804 367.946 139.948 368.618ZM128.02 375.128C131.072 372.384 135.188 371.012 140.368 371.012C145.548 371.012 149.664 372.384 152.716 375.128C155.768 377.872 157.294 381.596 157.294 386.3C157.294 391.004 155.768 394.728 152.716 397.472C149.664 400.216 145.548 401.588 140.368 401.588C135.188 401.588 131.072 400.216 128.02 397.472C124.968 394.728 123.442 391.004 123.442 386.3C123.442 381.596 124.968 377.872 128.02 375.128ZM133.018 396.212C134.838 398.62 137.288 399.824 140.368 399.824C143.448 399.824 145.884 398.62 147.676 396.212C149.496 393.776 150.406 390.472 150.406 386.3C150.406 383.556 150 381.162 149.188 379.118C148.376 377.074 147.214 375.506 145.702 374.414C144.19 373.322 142.412 372.776 140.368 372.776C137.288 372.776 134.838 373.994 133.018 376.43C131.226 378.838 130.33 382.128 130.33 386.3C130.33 390.472 131.226 393.776 133.018 396.212ZM192.747 372.02C192.047 372.02 191.445 372.272 190.941 372.776C190.437 373.252 190.171 373.84 190.143 374.54V396.212C190.143 398.088 190.269 399.67 190.521 400.958L190.647 401.588H190.269L169.059 381.386V398.06C169.059 398.76 169.311 399.362 169.815 399.866C170.319 400.342 170.921 400.58 171.621 400.58H172.419V401H159.693V400.58H160.449C161.177 400.58 161.793 400.342 162.297 399.866C162.801 399.362 163.053 398.746 163.053 398.018V376.22C163.053 374.372 162.927 372.832 162.675 371.6L162.591 370.97H162.969L184.179 391.172V374.582C184.151 373.854 183.885 373.252 183.381 372.776C182.877 372.272 182.275 372.02 181.575 372.02H180.819V371.6H193.545V372.02H192.747ZM236.142 372.02H235.554C234.714 372.02 233.916 372.258 233.16 372.734C232.404 373.21 231.802 373.784 231.354 374.456L223.08 387.644V397.934C223.08 398.662 223.346 399.292 223.878 399.824C224.41 400.328 225.04 400.58 225.768 400.58H226.272L226.314 401H213.546V400.58H214.092C214.82 400.58 215.436 400.328 215.94 399.824C216.472 399.32 216.752 398.704 216.78 397.976V387.602L208.758 374.414C208.338 373.742 207.736 373.182 206.952 372.734C206.196 372.258 205.412 372.02 204.6 372.02H204.012V371.6H217.914V372.02H217.368C216.752 372.02 216.276 372.3 215.94 372.86C215.772 373.168 215.688 373.476 215.688 373.784C215.688 374.064 215.758 374.344 215.898 374.624L221.904 385.544L228.12 374.624C228.288 374.344 228.372 374.064 228.372 373.784C228.372 373.476 228.274 373.182 228.078 372.902C227.742 372.314 227.266 372.02 226.65 372.02H226.146V371.6H236.142V372.02ZM279.199 384.578C279.283 385.418 279.325 386.482 279.325 387.77C279.325 389.03 279.073 390.584 278.569 392.432C278.065 394.252 277.155 395.862 275.839 397.262C273.151 400.146 269.455 401.588 264.751 401.588C259.039 401.588 254.531 400.188 251.227 397.388C247.923 394.56 246.271 390.878 246.271 386.342C246.271 381.778 247.937 378.082 251.269 375.254C254.629 372.426 259.053 371.012 264.541 371.012C266.641 371.012 268.643 371.222 270.547 371.642C272.451 372.062 274.033 372.608 275.293 373.28L275.377 380.504H275.041C274.565 378.712 273.767 377.214 272.647 376.01C270.631 373.854 267.915 372.776 264.499 372.776C261.083 372.776 258.325 373.994 256.225 376.43C254.153 378.866 253.117 382.1 253.117 386.132C253.117 390.136 254.195 393.398 256.351 395.918C258.535 398.438 261.531 399.74 265.339 399.824C269.455 399.824 272.731 398.508 275.167 395.876C277.603 393.244 278.821 389.674 278.821 385.166C278.821 384.97 278.821 384.774 278.821 384.578H279.199ZM298.811 371.012C303.991 371.012 308.107 372.384 311.159 375.128C314.211 377.872 315.737 381.596 315.737 386.3C315.737 391.004 314.211 394.728 311.159 397.472C308.107 400.216 303.991 401.588 298.811 401.588C293.631 401.588 289.515 400.216 286.463 397.472C283.411 394.728 281.885 391.004 281.885 386.3C281.885 383.192 282.571 380.49 283.943 378.194C285.343 375.87 287.317 374.092 289.865 372.86C292.413 371.628 295.395 371.012 298.811 371.012ZM291.461 396.212C293.281 398.62 295.731 399.824 298.811 399.824C301.891 399.824 304.327 398.62 306.119 396.212C307.939 393.776 308.849 390.472 308.849 386.3C308.849 383.556 308.443 381.162 307.631 379.118C306.819 377.074 305.657 375.506 304.145 374.414C302.633 373.322 300.855 372.776 298.811 372.776C295.731 372.776 293.281 373.994 291.461 376.43C289.669 378.838 288.773 382.128 288.773 386.3C288.773 390.472 289.669 393.776 291.461 396.212ZM351.19 372.02C350.49 372.02 349.888 372.272 349.384 372.776C348.88 373.252 348.614 373.84 348.586 374.54V396.212C348.586 398.088 348.712 399.67 348.964 400.958L349.09 401.588H348.712L327.502 381.386V398.06C327.502 398.76 327.754 399.362 328.258 399.866C328.762 400.342 329.364 400.58 330.064 400.58H330.862V401H318.136V400.58H318.892C319.62 400.58 320.236 400.342 320.74 399.866C321.244 399.362 321.496 398.746 321.496 398.018V376.22C321.496 374.372 321.37 372.832 321.118 371.6L321.034 370.97H321.412L342.622 391.172V374.582C342.594 373.854 342.328 373.252 341.824 372.776C341.32 372.272 340.718 372.02 340.018 372.02H339.262V371.6H351.988V372.02H351.19ZM355.316 397.094C355.316 395.078 355.75 393.356 356.618 391.928H356.996C356.968 392.152 356.954 392.376 356.954 392.6C356.954 394.532 357.64 396.226 359.012 397.682C360.412 399.11 362.316 399.824 364.724 399.824C366.6 399.824 368.056 399.376 369.092 398.48C370.156 397.584 370.688 396.45 370.688 395.078C370.688 393.426 369.568 391.984 367.328 390.752L360.02 385.922C358.564 385.082 357.514 384.074 356.87 382.898C356.254 381.694 355.946 380.476 355.946 379.244C355.946 376.612 356.772 374.582 358.424 373.154C360.104 371.726 362.246 371.012 364.85 371.012C366.39 371.012 368.294 371.152 370.562 371.432H373.208L372.662 377.606H372.242C372.242 376.15 371.696 374.988 370.604 374.12C369.54 373.224 368.112 372.776 366.32 372.776C364.136 372.776 362.554 373.448 361.574 374.792C361.07 375.436 360.818 376.164 360.818 376.976C360.818 378.32 361.798 379.566 363.758 380.714L371.78 385.922C374.3 387.378 375.56 389.52 375.56 392.348C375.56 395.344 374.538 397.64 372.494 399.236C370.478 400.804 367.79 401.588 364.43 401.588C362.526 401.588 360.762 401.364 359.138 400.916C357.542 400.44 356.366 399.81 355.61 399.026C355.414 398.494 355.316 397.85 355.316 397.094ZM410.185 372.02H409.471C408.883 372.02 408.365 372.216 407.917 372.608C407.497 372.972 407.287 373.434 407.287 373.994V390.374C407.287 393.818 406.209 396.548 404.053 398.564C401.897 400.58 398.943 401.588 395.191 401.588C390.767 401.588 387.379 400.608 385.027 398.648C382.675 396.66 381.499 393.916 381.499 390.416V374.12C381.499 373.504 381.275 373 380.827 372.608C380.407 372.216 379.889 372.02 379.273 372.02H378.601V371.6H390.697V372.02H390.025C389.409 372.02 388.891 372.216 388.471 372.608C388.051 372.972 387.827 373.448 387.799 374.036V390.08C387.799 393.048 388.527 395.4 389.983 397.136C391.439 398.872 393.441 399.74 395.989 399.74C398.537 399.74 400.553 398.928 402.037 397.304C403.521 395.652 404.277 393.426 404.305 390.626V374.036C404.305 373.448 404.081 372.972 403.633 372.608C403.213 372.216 402.695 372.02 402.079 372.02H401.407V371.6H410.185V372.02ZM413.44 400.58C414.168 400.58 414.784 400.328 415.288 399.824C415.82 399.292 416.1 398.662 416.128 397.934V374.54C416.044 373.56 415.582 372.832 414.742 372.356C414.322 372.132 413.888 372.02 413.44 372.02H412.894V371.6H428.98C429.848 371.6 430.8 371.516 431.836 371.348C432.872 371.18 433.6 371.012 434.02 370.844V378.194H433.6V377.69C433.6 376.43 433.222 375.422 432.466 374.666C431.738 373.882 430.744 373.462 429.484 373.406H422.428V385.628H427.972C429.008 385.6 429.862 385.25 430.534 384.578C431.206 383.878 431.542 383.024 431.542 382.016V381.638H431.962V391.34H431.542V391.004C431.542 389.604 430.982 388.568 429.862 387.896C429.302 387.588 428.686 387.42 428.014 387.392H422.428V399.194H427.93C429.974 399.194 431.682 398.606 433.054 397.43C434.454 396.254 435.49 394.588 436.162 392.432H436.582L434.65 401H412.894V400.58H413.44ZM439.772 400.58C440.5 400.58 441.116 400.328 441.62 399.824C442.152 399.292 442.432 398.662 442.46 397.934V374.666C442.432 373.938 442.152 373.322 441.62 372.818C441.116 372.286 440.5 372.02 439.772 372.02H439.226V371.6H451.994L451.952 372.02H451.448C450.72 372.02 450.09 372.286 449.558 372.818C449.026 373.322 448.76 373.938 448.76 374.666V399.194H454.262C456.306 399.194 458.014 398.606 459.386 397.43C460.786 396.254 461.822 394.588 462.494 392.432H462.914L460.982 401H439.226V400.58H439.772ZM481.495 371.012C486.675 371.012 490.791 372.384 493.843 375.128C496.895 377.872 498.421 381.596 498.421 386.3C498.421 391.004 496.895 394.728 493.843 397.472C490.791 400.216 486.675 401.588 481.495 401.588C476.315 401.588 472.199 400.216 469.147 397.472C466.095 394.728 464.569 391.004 464.569 386.3C464.569 383.192 465.255 380.49 466.627 378.194C468.027 375.87 470.001 374.092 472.549 372.86C475.097 371.628 478.079 371.012 481.495 371.012ZM474.145 396.212C475.965 398.62 478.415 399.824 481.495 399.824C484.575 399.824 487.011 398.62 488.803 396.212C490.623 393.776 491.533 390.472 491.533 386.3C491.533 383.556 491.127 381.162 490.315 379.118C489.503 377.074 488.341 375.506 486.829 374.414C485.317 373.322 483.539 372.776 481.495 372.776C478.415 372.776 475.965 373.994 474.145 376.43C472.353 378.838 471.457 382.128 471.457 386.3C471.457 390.472 472.353 393.776 474.145 396.212Z" fill="#6B1E1E"/>
</g>
<defs>
<clipPath id="clip0_1_3">
<rect width="500" height="401" fill="white"/>
</clipPath>
</defs>
</svg>
