<svg width="512" height="512" viewBox="0 0 512 512" fill="none" xmlns="http://www.w3.org/2000/svg">
<path d="M406.938 153.254C406.938 153.254 395.591 143.614 379.178 138.252C374.63 122.935 363.323 112.094 350.093 112.094C344.417 112.094 339.094 114.096 334.494 117.6C339.764 121.61 344.036 127.582 346.786 134.754H275.93V68.9719C283.661 71.5247 290.099 75.495 294.41 80.3775C298.19 76.1184 300.343 71.1703 300.343 65.8875C300.343 53.6156 288.655 43.1222 272.157 38.9025C266.382 23.6578 255.993 13.125 255.993 13.125C255.993 13.125 245.612 23.6578 239.83 38.9025C223.332 43.1287 211.651 53.6156 211.651 65.8875C211.651 71.1703 213.803 76.1184 217.583 80.3775C221.895 75.495 228.339 71.5181 236.063 68.9719V134.748H165.214C167.958 127.568 172.243 121.603 177.493 117.593C172.912 114.089 167.583 112.087 161.894 112.087C148.664 112.087 137.376 122.929 132.815 138.246C116.409 143.614 105.062 153.254 105.062 153.254C105.062 153.254 116.409 162.901 132.815 168.262C137.37 183.579 148.664 194.427 161.894 194.427C167.583 194.427 172.912 192.419 177.493 188.915C172.243 184.905 167.958 178.933 165.214 171.754H236.07V248.246V351.028C228.339 348.482 221.901 344.505 217.59 339.636C213.81 343.888 211.657 348.836 211.657 354.112C211.657 366.384 223.338 376.884 239.837 381.097C245.612 396.349 255.993 406.875 255.993 406.875C255.993 406.875 266.382 396.349 272.163 381.097C288.662 376.878 300.349 366.384 300.349 354.112C300.349 348.836 298.197 343.888 294.417 339.636C290.105 344.505 283.661 348.488 275.937 351.028V248.246V171.754H346.792C344.042 178.933 339.77 184.905 334.501 188.915C339.101 192.419 344.423 194.427 350.1 194.427C363.33 194.427 374.63 183.579 379.185 168.262C395.591 162.894 406.938 153.254 406.938 153.254Z" fill="#C9A85C"/>
<path d="M114.06 415V443H108.06V415H114.06ZM95.0998 415V443H89.0998V415H95.0998ZM108.42 428.2V429.92H94.6998V428.2H108.42ZM89.2198 440.08V443H86.0198V442.6C86.0198 442.6 86.0998 442.6 86.2598 442.6C86.4465 442.6 86.5398 442.6 86.5398 442.6C87.2332 442.6 87.8198 442.36 88.2998 441.88C88.8065 441.373 89.0732 440.773 89.0998 440.08H89.2198ZM89.2198 417.92H89.0998C89.0732 417.227 88.8065 416.64 88.2998 416.16C87.8198 415.653 87.2332 415.4 86.5398 415.4C86.5398 415.4 86.4465 415.4 86.2598 415.4C86.0998 415.4 86.0198 415.4 86.0198 415.4V415H89.2198V417.92ZM94.9798 440.08H95.0998C95.1265 440.773 95.3798 441.373 95.8598 441.88C96.3665 442.36 96.9665 442.6 97.6598 442.6C97.6598 442.6 97.7398 442.6 97.8998 442.6C98.0598 442.6 98.1532 442.6 98.1798 442.6V443H94.9798V440.08ZM94.9798 417.92V415H98.1798V415.4C98.1532 415.4 98.0598 415.4 97.8998 415.4C97.7398 415.4 97.6598 415.4 97.6598 415.4C96.9665 415.4 96.3665 415.653 95.8598 416.16C95.3798 416.64 95.1265 417.227 95.0998 417.92H94.9798ZM108.18 440.08V443H104.98V442.6C105.007 442.6 105.1 442.6 105.26 442.6C105.42 442.6 105.5 442.6 105.5 442.6C106.193 442.6 106.793 442.36 107.3 441.88C107.807 441.373 108.06 440.773 108.06 440.08H108.18ZM108.18 417.92H108.06C108.06 417.227 107.807 416.64 107.3 416.16C106.793 415.653 106.193 415.4 105.5 415.4C105.5 415.4 105.42 415.4 105.26 415.4C105.1 415.4 105.007 415.4 104.98 415.4V415H108.18V417.92ZM113.94 440.08H114.06C114.087 440.773 114.34 441.373 114.82 441.88C115.327 442.36 115.927 442.6 116.62 442.6C116.62 442.6 116.7 442.6 116.86 442.6C117.047 442.6 117.14 442.6 117.14 442.6V443H113.94V440.08ZM113.94 417.92V415H117.14V415.4C117.14 415.4 117.047 415.4 116.86 415.4C116.7 415.4 116.62 415.4 116.62 415.4C115.927 415.4 115.327 415.653 114.82 416.16C114.34 416.64 114.087 417.227 114.06 417.92H113.94ZM128.163 419V443H122.403V419H128.163ZM137.523 441.4L138.443 443H128.083V441.4H137.523ZM136.163 430.32V431.92H128.083V430.32H136.163ZM137.963 419V420.6H128.083V419H137.963ZM140.083 435.64L138.563 443H131.643L132.883 441.4C134.03 441.4 135.043 441.173 135.923 440.72C136.83 440.24 137.603 439.573 138.243 438.72C138.883 437.84 139.377 436.813 139.723 435.64H140.083ZM136.163 431.84V435.36H135.763V435.04C135.763 434.16 135.483 433.427 134.923 432.84C134.39 432.253 133.657 431.947 132.723 431.92V431.84H136.163ZM136.163 426.88V430.4H132.723V430.32C133.657 430.293 134.39 429.987 134.923 429.4C135.483 428.787 135.763 428.04 135.763 427.16V426.88H136.163ZM137.963 420.52V424.76H137.563V424.4C137.563 423.227 137.243 422.307 136.603 421.64C135.99 420.973 135.097 420.627 133.923 420.6V420.52H137.963ZM137.963 418.4V419.36L133.763 419C134.537 419 135.35 418.933 136.203 418.8C137.057 418.64 137.643 418.507 137.963 418.4ZM122.483 440.48L122.683 443H119.723V442.6C119.723 442.6 119.803 442.6 119.963 442.6C120.123 442.6 120.217 442.6 120.243 442.6C120.83 442.6 121.323 442.4 121.723 442C122.15 441.573 122.377 441.067 122.403 440.48H122.483ZM122.483 421.52H122.403C122.377 420.907 122.15 420.4 121.723 420C121.323 419.6 120.83 419.4 120.243 419.4C120.217 419.4 120.123 419.4 119.963 419.4C119.803 419.4 119.723 419.4 119.723 419.4V419H122.683L122.483 421.52ZM150.425 419H154.745C155.838 419 156.905 419.12 157.945 419.36C158.985 419.573 159.918 419.933 160.745 420.44C161.572 420.92 162.225 421.587 162.705 422.44C163.212 423.267 163.465 424.307 163.465 425.56C163.465 426.493 163.265 427.427 162.865 428.36C162.492 429.267 161.892 430.053 161.065 430.72C160.265 431.387 159.212 431.827 157.905 432.04C158.678 432.28 159.412 432.747 160.105 433.44C160.825 434.133 161.385 434.787 161.785 435.4C161.892 435.613 162.078 435.96 162.345 436.44C162.612 436.893 162.945 437.427 163.345 438.04C163.772 438.627 164.212 439.24 164.665 439.88C165.198 440.6 165.665 441.16 166.065 441.56C166.465 441.933 166.878 442.2 167.305 442.36C167.732 442.52 168.225 442.6 168.785 442.6V443H165.425C163.985 443 162.758 442.893 161.745 442.68C160.758 442.467 159.892 442.08 159.145 441.52C158.425 440.933 157.758 440.147 157.145 439.16C156.905 438.813 156.652 438.4 156.385 437.92C156.118 437.413 155.852 436.907 155.585 436.4C155.318 435.893 155.078 435.4 154.865 434.92C154.678 434.44 154.545 434.04 154.465 433.72C154.118 432.867 153.718 432.253 153.265 431.88C152.838 431.48 152.438 431.28 152.065 431.28V430.92C152.065 430.92 152.158 430.92 152.345 430.92C152.532 430.92 152.772 430.92 153.065 430.92C153.625 430.92 154.172 430.827 154.705 430.64C155.265 430.427 155.772 430.04 156.225 429.48C156.678 428.893 157.012 428.04 157.225 426.92C157.278 426.76 157.318 426.533 157.345 426.24C157.398 425.947 157.412 425.613 157.385 425.24C157.332 424.253 157.145 423.467 156.825 422.88C156.532 422.267 156.158 421.813 155.705 421.52C155.252 421.2 154.785 420.987 154.305 420.88C153.852 420.747 153.452 420.68 153.105 420.68C152.598 420.653 152.132 420.653 151.705 420.68C151.305 420.68 150.998 420.667 150.785 420.64C150.758 420.64 150.718 420.507 150.665 420.24C150.612 419.947 150.558 419.667 150.505 419.4C150.452 419.133 150.425 419 150.425 419ZM150.825 419V443H145.025V419H150.825ZM145.145 440.48L145.305 443H142.425V442.6C142.452 442.6 142.518 442.6 142.625 442.6C142.758 442.6 142.852 442.6 142.905 442.6C143.492 442.6 143.985 442.4 144.385 442C144.812 441.573 145.038 441.067 145.065 440.48H145.145ZM145.145 421.48H145.065C145.038 420.867 144.812 420.373 144.385 420C143.985 419.6 143.505 419.4 142.945 419.4C142.865 419.4 142.758 419.4 142.625 419.4C142.518 419.4 142.452 419.4 142.425 419.4V419H145.305L145.145 421.48ZM150.745 440.48H150.825C150.825 441.147 151.052 441.667 151.505 442.04C151.985 442.413 152.492 442.6 153.025 442.6C153.025 442.6 153.078 442.6 153.185 442.6C153.292 442.6 153.372 442.6 153.425 442.6V443H150.545L150.745 440.48ZM195.587 418.48L195.907 422.6L185.147 439.68C185.147 439.68 185.027 439.907 184.787 440.36C184.547 440.787 184.307 441.307 184.067 441.92C183.853 442.533 183.733 443.147 183.707 443.76H183.347L181.787 440.48L195.587 418.48ZM170.987 440.44V443H167.067V442.6C167.067 442.6 167.16 442.6 167.347 442.6C167.507 442.6 167.587 442.6 167.587 442.6C168.253 442.6 168.827 442.413 169.307 442.04C169.813 441.667 170.12 441.133 170.227 440.44H170.987ZM172.707 441C172.68 441.293 172.773 441.64 172.987 442.04C173.2 442.413 173.573 442.6 174.107 442.6H174.667V443H172.267L172.507 441H172.707ZM173.347 418.48H173.667L175.027 422.32L172.507 443H169.907L173.347 418.48ZM173.667 418.48L185.507 436.2L183.347 443.76L172.707 427.64L173.667 418.48ZM195.947 418.48L199.467 443H193.347L191.387 428.4L195.587 418.48H195.947ZM198.347 440.44H199.107C199.24 441.133 199.547 441.667 200.027 442.04C200.533 442.413 201.093 442.6 201.707 442.6C201.707 442.6 201.8 442.6 201.987 442.6C202.173 442.6 202.267 442.6 202.267 442.6V443H198.347V440.44ZM193.067 441H193.307L193.547 443H191.147V442.6H191.707C192.293 442.6 192.68 442.413 192.867 442.04C193.053 441.64 193.12 441.293 193.067 441ZM214.678 417.92L226.518 442.8H219.758L212.318 425.24L214.678 417.92ZM207.158 440.36C206.865 441.08 206.905 441.64 207.278 442.04C207.651 442.413 208.065 442.6 208.518 442.6H208.838V443H200.838V442.6C200.838 442.6 200.891 442.6 200.998 442.6C201.105 442.6 201.158 442.6 201.158 442.6C201.691 442.6 202.251 442.44 202.838 442.12C203.425 441.773 203.905 441.187 204.278 440.36H207.158ZM214.678 417.92L214.758 422.72L206.078 442.88H203.118L212.478 422.76C212.531 422.6 212.651 422.32 212.838 421.92C213.025 421.493 213.225 421.027 213.438 420.52C213.651 419.987 213.851 419.493 214.038 419.04C214.225 418.56 214.331 418.187 214.358 417.92H214.678ZM218.158 435.16V436.72H207.958V435.16H218.158ZM218.758 440.36H225.358C225.758 441.187 226.251 441.773 226.838 442.12C227.425 442.44 227.985 442.6 228.518 442.6C228.518 442.6 228.571 442.6 228.678 442.6C228.785 442.6 228.838 442.6 228.838 442.6V443H217.078V442.6H217.398C217.851 442.6 218.265 442.413 218.638 442.04C219.011 441.64 219.051 441.08 218.758 440.36ZM231.3 418.44L254.78 439.08L255.18 443.52L231.74 422.88L231.3 418.44ZM231.46 440.56V443H228.5V442.6C228.5 442.6 228.607 442.6 228.82 442.6C229.033 442.6 229.14 442.6 229.14 442.6C229.753 442.6 230.273 442.413 230.7 442.04C231.127 441.64 231.34 441.147 231.34 440.56H231.46ZM236.82 440.56C236.847 441.147 237.073 441.64 237.5 442.04C237.927 442.413 238.433 442.6 239.02 442.6C239.02 442.6 239.127 442.6 239.34 442.6C239.58 442.6 239.7 442.6 239.7 442.6V443H236.74V440.56H236.82ZM231.3 418.44L236.82 424.44V443H231.34V423C231.34 421.64 231.273 420.547 231.14 419.72C231.007 418.867 230.94 418.44 230.94 418.44H231.3ZM255.14 419V438.84C255.14 439.773 255.167 440.6 255.22 441.32C255.3 442.013 255.367 442.56 255.42 442.96C255.5 443.333 255.54 443.52 255.54 443.52H255.18L249.66 437.16V419H255.14ZM255.02 421.44V419H258.02V419.4C258.02 419.4 257.9 419.4 257.66 419.4C257.447 419.4 257.34 419.4 257.34 419.4C256.753 419.4 256.233 419.6 255.78 420C255.353 420.373 255.14 420.853 255.14 421.44H255.02ZM249.66 421.44C249.633 420.853 249.407 420.373 248.98 420C248.58 419.6 248.073 419.4 247.46 419.4C247.46 419.4 247.34 419.4 247.1 419.4C246.887 419.4 246.78 419.4 246.78 419.4V419H249.74V421.44H249.66ZM273.672 419C276.525 419 278.979 419.48 281.032 420.44C283.085 421.373 284.659 422.747 285.752 424.56C286.845 426.347 287.392 428.493 287.392 431C287.392 433.507 286.845 435.653 285.752 437.44C284.659 439.227 283.085 440.6 281.032 441.56C278.979 442.52 276.525 443 273.672 443H264.792L264.712 441.4C266.739 441.4 268.365 441.4 269.592 441.4C270.845 441.4 271.752 441.4 272.312 441.4C272.899 441.4 273.192 441.4 273.192 441.4C275.699 441.4 277.672 440.48 279.112 438.64C280.552 436.8 281.272 434.253 281.272 431C281.272 427.747 280.552 425.2 279.112 423.36C277.672 421.493 275.699 420.56 273.192 420.56C273.192 420.56 272.899 420.56 272.312 420.56C271.725 420.56 270.779 420.56 269.472 420.56C268.165 420.56 266.445 420.56 264.312 420.56V419H273.672ZM268.672 419V443H262.912V419H268.672ZM263.032 440.44V443H260.152V442.6C260.152 442.6 260.232 442.6 260.392 442.6C260.552 442.6 260.645 442.6 260.672 442.6C261.285 442.6 261.805 442.387 262.232 441.96C262.685 441.533 262.912 441.027 262.912 440.44H263.032ZM262.992 421.52H262.912C262.885 420.907 262.645 420.4 262.192 420C261.765 419.6 261.245 419.4 260.632 419.4C260.632 419.4 260.552 419.4 260.392 419.4C260.232 419.4 260.152 419.4 260.152 419.4V419H262.992V421.52ZM300.928 417.92L312.768 442.8H306.008L298.568 425.24L300.928 417.92ZM293.408 440.36C293.115 441.08 293.155 441.64 293.528 442.04C293.901 442.413 294.315 442.6 294.768 442.6H295.088V443H287.088V442.6C287.088 442.6 287.141 442.6 287.248 442.6C287.355 442.6 287.408 442.6 287.408 442.6C287.941 442.6 288.501 442.44 289.088 442.12C289.675 441.773 290.155 441.187 290.528 440.36H293.408ZM300.928 417.92L301.008 422.72L292.328 442.88H289.368L298.728 422.76C298.781 422.6 298.901 422.32 299.088 421.92C299.275 421.493 299.475 421.027 299.688 420.52C299.901 419.987 300.101 419.493 300.288 419.04C300.475 418.56 300.581 418.187 300.608 417.92H300.928ZM304.408 435.16V436.72H294.208V435.16H304.408ZM305.008 440.36H311.608C312.008 441.187 312.501 441.773 313.088 442.12C313.675 442.44 314.235 442.6 314.768 442.6C314.768 442.6 314.821 442.6 314.928 442.6C315.035 442.6 315.088 442.6 315.088 442.6V443H303.328V442.6H303.648C304.101 442.6 304.515 442.413 304.888 442.04C305.261 441.64 305.301 441.08 305.008 440.36ZM328.75 419C331.603 419 334.057 419.48 336.11 420.44C338.163 421.373 339.737 422.747 340.83 424.56C341.923 426.347 342.47 428.493 342.47 431C342.47 433.507 341.923 435.653 340.83 437.44C339.737 439.227 338.163 440.6 336.11 441.56C334.057 442.52 331.603 443 328.75 443H319.87L319.79 441.4C321.817 441.4 323.443 441.4 324.67 441.4C325.923 441.4 326.83 441.4 327.39 441.4C327.977 441.4 328.27 441.4 328.27 441.4C330.777 441.4 332.75 440.48 334.19 438.64C335.63 436.8 336.35 434.253 336.35 431C336.35 427.747 335.63 425.2 334.19 423.36C332.75 421.493 330.777 420.56 328.27 420.56C328.27 420.56 327.977 420.56 327.39 420.56C326.803 420.56 325.857 420.56 324.55 420.56C323.243 420.56 321.523 420.56 319.39 420.56V419H328.75ZM323.75 419V443H317.99V419H323.75ZM318.11 440.44V443H315.23V442.6C315.23 442.6 315.31 442.6 315.47 442.6C315.63 442.6 315.723 442.6 315.75 442.6C316.363 442.6 316.883 442.387 317.31 441.96C317.763 441.533 317.99 441.027 317.99 440.44H318.11ZM318.07 421.52H317.99C317.963 420.907 317.723 420.4 317.27 420C316.843 419.6 316.323 419.4 315.71 419.4C315.71 419.4 315.63 419.4 315.47 419.4C315.31 419.4 315.23 419.4 315.23 419.4V419H318.07V421.52ZM368.672 419C371.525 419 373.979 419.48 376.032 420.44C378.085 421.373 379.659 422.747 380.752 424.56C381.845 426.347 382.392 428.493 382.392 431C382.392 433.507 381.845 435.653 380.752 437.44C379.659 439.227 378.085 440.6 376.032 441.56C373.979 442.52 371.525 443 368.672 443H359.792L359.712 441.4C361.739 441.4 363.365 441.4 364.592 441.4C365.845 441.4 366.752 441.4 367.312 441.4C367.899 441.4 368.192 441.4 368.192 441.4C370.699 441.4 372.672 440.48 374.112 438.64C375.552 436.8 376.272 434.253 376.272 431C376.272 427.747 375.552 425.2 374.112 423.36C372.672 421.493 370.699 420.56 368.192 420.56C368.192 420.56 367.899 420.56 367.312 420.56C366.725 420.56 365.779 420.56 364.472 420.56C363.165 420.56 361.445 420.56 359.312 420.56V419H368.672ZM363.672 419V443H357.912V419H363.672ZM358.032 440.44V443H355.152V442.6C355.152 442.6 355.232 442.6 355.392 442.6C355.552 442.6 355.645 442.6 355.672 442.6C356.285 442.6 356.805 442.387 357.232 441.96C357.685 441.533 357.912 441.027 357.912 440.44H358.032ZM357.992 421.52H357.912C357.885 420.907 357.645 420.4 357.192 420C356.765 419.6 356.245 419.4 355.632 419.4C355.632 419.4 355.552 419.4 355.392 419.4C355.232 419.4 355.152 419.4 355.152 419.4V419H357.992V421.52ZM393.085 419V443H387.325V419H393.085ZM402.445 441.4L403.365 443H393.005V441.4H402.445ZM401.085 430.32V431.92H393.005V430.32H401.085ZM402.885 419V420.6H393.005V419H402.885ZM405.005 435.64L403.485 443H396.565L397.805 441.4C398.952 441.4 399.965 441.173 400.845 440.72C401.752 440.24 402.525 439.573 403.165 438.72C403.805 437.84 404.298 436.813 404.645 435.64H405.005ZM401.085 431.84V435.36H400.685V435.04C400.685 434.16 400.405 433.427 399.845 432.84C399.312 432.253 398.578 431.947 397.645 431.92V431.84H401.085ZM401.085 426.88V430.4H397.645V430.32C398.578 430.293 399.312 429.987 399.845 429.4C400.405 428.787 400.685 428.04 400.685 427.16V426.88H401.085ZM402.885 420.52V424.76H402.485V424.4C402.485 423.227 402.165 422.307 401.525 421.64C400.912 420.973 400.018 420.627 398.845 420.6V420.52H402.885ZM402.885 418.4V419.36L398.685 419C399.458 419 400.272 418.933 401.125 418.8C401.978 418.64 402.565 418.507 402.885 418.4ZM387.405 440.48L387.605 443H384.645V442.6C384.645 442.6 384.725 442.6 384.885 442.6C385.045 442.6 385.138 442.6 385.165 442.6C385.752 442.6 386.245 442.4 386.645 442C387.072 441.573 387.298 441.067 387.325 440.48H387.405ZM387.405 421.52H387.325C387.298 420.907 387.072 420.4 386.645 420C386.245 419.6 385.752 419.4 385.165 419.4C385.138 419.4 385.045 419.4 384.885 419.4C384.725 419.4 384.645 419.4 384.645 419.4V419H387.605L387.405 421.52ZM415.507 419V443H409.747V419H415.507ZM424.827 441.4L425.787 443H415.427V441.4H424.827ZM427.467 435.64L425.907 443H418.987L420.227 441.4C421.374 441.4 422.387 441.173 423.267 440.72C424.174 440.24 424.947 439.573 425.587 438.72C426.227 437.84 426.72 436.813 427.067 435.64H427.467ZM409.827 440.48L410.027 443H407.067V442.6C407.067 442.6 407.147 442.6 407.307 442.6C407.467 442.6 407.56 442.6 407.587 442.6C408.174 442.6 408.667 442.4 409.067 442C409.494 441.573 409.72 441.067 409.747 440.48H409.827ZM415.427 421.52V419H418.187V419.4C418.16 419.4 418.067 419.4 417.907 419.4C417.774 419.4 417.707 419.4 417.707 419.4C417.12 419.4 416.614 419.6 416.187 420C415.76 420.4 415.534 420.907 415.507 421.52H415.427ZM409.827 421.52H409.747C409.72 420.907 409.494 420.4 409.067 420C408.64 419.6 408.134 419.4 407.547 419.4C407.52 419.4 407.427 419.4 407.267 419.4C407.134 419.4 407.067 419.4 407.067 419.4V419H409.827V421.52ZM51.2623 469H56.0623C58.3557 469 60.209 469.333 61.6223 470C63.0623 470.667 64.129 471.587 64.8223 472.76C65.5423 473.907 65.929 475.213 65.9823 476.68C66.0357 478.04 65.809 479.28 65.3023 480.4C64.7957 481.52 64.1023 482.453 63.2223 483.2C62.3423 483.947 61.329 484.493 60.1823 484.84C59.0623 485.16 57.889 485.24 56.6623 485.08C55.4623 484.893 54.289 484.427 53.1423 483.68V483.28C53.1423 483.28 53.3023 483.28 53.6223 483.28C53.969 483.28 54.3957 483.227 54.9023 483.12C55.4357 483.013 55.9823 482.813 56.5423 482.52C57.129 482.227 57.6757 481.773 58.1823 481.16C58.689 480.547 59.0757 479.733 59.3423 478.72C59.449 478.373 59.5157 477.987 59.5423 477.56C59.5957 477.107 59.609 476.693 59.5823 476.32C59.5557 474.613 59.089 473.253 58.1823 472.24C57.3023 471.2 56.049 470.68 54.4223 470.68H51.6623C51.6623 470.68 51.6223 470.547 51.5423 470.28C51.489 469.987 51.4223 469.707 51.3423 469.44C51.289 469.147 51.2623 469 51.2623 469ZM51.7823 469V497H45.7823V469H51.7823ZM45.9023 494.08V497H42.7023V496.6C42.729 496.6 42.809 496.6 42.9423 496.6C43.1023 496.6 43.1957 496.6 43.2223 496.6C43.9157 496.6 44.5023 496.36 44.9823 495.88C45.489 495.373 45.7557 494.773 45.7823 494.08H45.9023ZM45.9023 471.92H45.7823C45.7823 471.227 45.529 470.64 45.0223 470.16C44.5157 469.653 43.9157 469.4 43.2223 469.4C43.1957 469.4 43.1157 469.4 42.9823 469.4C42.849 469.4 42.769 469.4 42.7423 469.4L42.7023 469H45.9023V471.92ZM51.6623 494.08H51.7823C51.809 494.773 52.0623 495.373 52.5423 495.88C53.049 496.36 53.649 496.6 54.3423 496.6C54.369 496.6 54.449 496.6 54.5823 496.6C54.7423 496.6 54.8357 496.6 54.8623 496.6V497H51.6623V494.08ZM76.7961 473V497H71.0361V473H76.7961ZM86.1561 495.4L87.0761 497H76.7161V495.4H86.1561ZM84.7961 484.32V485.92H76.7161V484.32H84.7961ZM86.5961 473V474.6H76.7161V473H86.5961ZM88.7161 489.64L87.1961 497H80.2761L81.5161 495.4C82.6628 495.4 83.6761 495.173 84.5561 494.72C85.4628 494.24 86.2361 493.573 86.8761 492.72C87.5161 491.84 88.0094 490.813 88.3561 489.64H88.7161ZM84.7961 485.84V489.36H84.3961V489.04C84.3961 488.16 84.1161 487.427 83.5561 486.84C83.0228 486.253 82.2894 485.947 81.3561 485.92V485.84H84.7961ZM84.7961 480.88V484.4H81.3561V484.32C82.2894 484.293 83.0228 483.987 83.5561 483.4C84.1161 482.787 84.3961 482.04 84.3961 481.16V480.88H84.7961ZM86.5961 474.52V478.76H86.1961V478.4C86.1961 477.227 85.8761 476.307 85.2361 475.64C84.6228 474.973 83.7294 474.627 82.5561 474.6V474.52H86.5961ZM86.5961 472.4V473.36L82.3961 473C83.1694 473 83.9828 472.933 84.8361 472.8C85.6894 472.64 86.2761 472.507 86.5961 472.4ZM71.1161 494.48L71.3161 497H68.3561V496.6C68.3561 496.6 68.4361 496.6 68.5961 496.6C68.7561 496.6 68.8494 496.6 68.8761 496.6C69.4628 496.6 69.9561 496.4 70.3561 496C70.7828 495.573 71.0094 495.067 71.0361 494.48H71.1161ZM71.1161 475.52H71.0361C71.0094 474.907 70.7828 474.4 70.3561 474C69.9561 473.6 69.4628 473.4 68.8761 473.4C68.8494 473.4 68.7561 473.4 68.5961 473.4C68.4361 473.4 68.3561 473.4 68.3561 473.4V473H71.3161L71.1161 475.52ZM99.058 473H103.378C104.471 473 105.538 473.12 106.578 473.36C107.618 473.573 108.551 473.933 109.378 474.44C110.205 474.92 110.858 475.587 111.338 476.44C111.845 477.267 112.098 478.307 112.098 479.56C112.098 480.493 111.898 481.427 111.498 482.36C111.125 483.267 110.525 484.053 109.698 484.72C108.898 485.387 107.845 485.827 106.538 486.04C107.311 486.28 108.045 486.747 108.738 487.44C109.458 488.133 110.018 488.787 110.418 489.4C110.525 489.613 110.711 489.96 110.978 490.44C111.245 490.893 111.578 491.427 111.978 492.04C112.405 492.627 112.845 493.24 113.298 493.88C113.831 494.6 114.298 495.16 114.698 495.56C115.098 495.933 115.511 496.2 115.938 496.36C116.365 496.52 116.858 496.6 117.418 496.6V497H114.058C112.618 497 111.391 496.893 110.378 496.68C109.391 496.467 108.525 496.08 107.778 495.52C107.058 494.933 106.391 494.147 105.778 493.16C105.538 492.813 105.285 492.4 105.018 491.92C104.751 491.413 104.485 490.907 104.218 490.4C103.951 489.893 103.711 489.4 103.498 488.92C103.311 488.44 103.178 488.04 103.098 487.72C102.751 486.867 102.351 486.253 101.898 485.88C101.471 485.48 101.071 485.28 100.698 485.28V484.92C100.698 484.92 100.791 484.92 100.978 484.92C101.165 484.92 101.405 484.92 101.698 484.92C102.258 484.92 102.805 484.827 103.338 484.64C103.898 484.427 104.405 484.04 104.858 483.48C105.311 482.893 105.645 482.04 105.858 480.92C105.911 480.76 105.951 480.533 105.978 480.24C106.031 479.947 106.045 479.613 106.018 479.24C105.965 478.253 105.778 477.467 105.458 476.88C105.165 476.267 104.791 475.813 104.338 475.52C103.885 475.2 103.418 474.987 102.938 474.88C102.485 474.747 102.085 474.68 101.738 474.68C101.231 474.653 100.765 474.653 100.338 474.68C99.938 474.68 99.6313 474.667 99.418 474.64C99.3913 474.64 99.3513 474.507 99.298 474.24C99.2446 473.947 99.1913 473.667 99.138 473.4C99.0846 473.133 99.058 473 99.058 473ZM99.458 473V497H93.658V473H99.458ZM93.778 494.48L93.938 497H91.058V496.6C91.0846 496.6 91.1513 496.6 91.258 496.6C91.3913 496.6 91.4846 496.6 91.538 496.6C92.1246 496.6 92.618 496.4 93.018 496C93.4446 495.573 93.6713 495.067 93.698 494.48H93.778ZM93.778 475.48H93.698C93.6713 474.867 93.4446 474.373 93.018 474C92.618 473.6 92.138 473.4 91.578 473.4C91.498 473.4 91.3913 473.4 91.258 473.4C91.1513 473.4 91.0846 473.4 91.058 473.4V473H93.938L93.778 475.48ZM99.378 494.48H99.458C99.458 495.147 99.6846 495.667 100.138 496.04C100.618 496.413 101.125 496.6 101.658 496.6C101.658 496.6 101.711 496.6 101.818 496.6C101.925 496.6 102.005 496.6 102.058 496.6V497H99.178L99.378 494.48ZM130.586 473C133.439 473 135.893 473.48 137.946 474.44C139.999 475.373 141.573 476.747 142.666 478.56C143.759 480.347 144.306 482.493 144.306 485C144.306 487.507 143.759 489.653 142.666 491.44C141.573 493.227 139.999 494.6 137.946 495.56C135.893 496.52 133.439 497 130.586 497H121.706L121.626 495.4C123.653 495.4 125.279 495.4 126.506 495.4C127.759 495.4 128.666 495.4 129.226 495.4C129.813 495.4 130.106 495.4 130.106 495.4C132.613 495.4 134.586 494.48 136.026 492.64C137.466 490.8 138.186 488.253 138.186 485C138.186 481.747 137.466 479.2 136.026 477.36C134.586 475.493 132.613 474.56 130.106 474.56C130.106 474.56 129.813 474.56 129.226 474.56C128.639 474.56 127.693 474.56 126.386 474.56C125.079 474.56 123.359 474.56 121.226 474.56V473H130.586ZM125.586 473V497H119.826V473H125.586ZM119.946 494.44V497H117.066V496.6C117.066 496.6 117.146 496.6 117.306 496.6C117.466 496.6 117.559 496.6 117.586 496.6C118.199 496.6 118.719 496.387 119.146 495.96C119.599 495.533 119.826 495.027 119.826 494.44H119.946ZM119.906 475.52H119.826C119.799 474.907 119.559 474.4 119.106 474C118.679 473.6 118.159 473.4 117.546 473.4C117.546 473.4 117.466 473.4 117.306 473.4C117.146 473.4 117.066 473.4 117.066 473.4V473H119.906V475.52ZM161.657 472.48C163.79 472.48 165.723 472.773 167.457 473.36C169.19 473.92 170.683 474.747 171.937 475.84C173.19 476.933 174.15 478.253 174.817 479.8C175.51 481.347 175.857 483.093 175.857 485.04C175.857 486.96 175.51 488.693 174.817 490.24C174.15 491.76 173.19 493.067 171.937 494.16C170.683 495.253 169.19 496.093 167.457 496.68C165.723 497.24 163.79 497.52 161.657 497.52C159.55 497.52 157.63 497.24 155.897 496.68C154.163 496.093 152.67 495.253 151.417 494.16C150.163 493.067 149.203 491.76 148.537 490.24C147.87 488.693 147.537 486.96 147.537 485.04C147.537 483.093 147.87 481.347 148.537 479.8C149.203 478.253 150.163 476.933 151.417 475.84C152.67 474.747 154.163 473.92 155.897 473.36C157.63 472.773 159.55 472.48 161.657 472.48ZM161.657 495.96C163.283 495.96 164.697 495.52 165.897 494.64C167.123 493.733 168.057 492.467 168.697 490.84C169.363 489.213 169.697 487.28 169.697 485.04C169.697 482.773 169.363 480.827 168.697 479.2C168.057 477.547 167.123 476.28 165.897 475.4C164.697 474.493 163.283 474.04 161.657 474.04C160.057 474.04 158.657 474.493 157.457 475.4C156.257 476.28 155.323 477.547 154.657 479.2C153.99 480.827 153.657 482.773 153.657 485.04C153.657 487.28 153.99 489.213 154.657 490.84C155.323 492.467 156.257 493.733 157.457 494.64C158.657 495.52 160.057 495.96 161.657 495.96ZM161.017 470.2C161.47 469.427 162.03 468.627 162.697 467.8C163.363 466.973 164.057 466.2 164.777 465.48C165.523 464.76 166.177 464.133 166.737 463.6C167.457 464 168.03 464.467 168.457 465C168.883 465.533 169.23 466.16 169.497 466.88C168.697 467.387 167.817 467.88 166.857 468.36C165.923 468.813 164.977 469.227 164.017 469.6C163.083 469.973 162.177 470.267 161.297 470.48L161.017 470.2ZM180.48 472.44L203.96 493.08L204.36 497.52L180.92 476.88L180.48 472.44ZM180.64 494.56V497H177.68V496.6C177.68 496.6 177.787 496.6 178 496.6C178.213 496.6 178.32 496.6 178.32 496.6C178.933 496.6 179.453 496.413 179.88 496.04C180.307 495.64 180.52 495.147 180.52 494.56H180.64ZM186 494.56C186.027 495.147 186.253 495.64 186.68 496.04C187.107 496.413 187.613 496.6 188.2 496.6C188.2 496.6 188.307 496.6 188.52 496.6C188.76 496.6 188.88 496.6 188.88 496.6V497H185.92V494.56H186ZM180.48 472.44L186 478.44V497H180.52V477C180.52 475.64 180.453 474.547 180.32 473.72C180.187 472.867 180.12 472.44 180.12 472.44H180.48ZM204.32 473V492.84C204.32 493.773 204.347 494.6 204.4 495.32C204.48 496.013 204.547 496.56 204.6 496.96C204.68 497.333 204.72 497.52 204.72 497.52H204.36L198.84 491.16V473H204.32ZM204.2 475.44V473H207.2V473.4C207.2 473.4 207.08 473.4 206.84 473.4C206.627 473.4 206.52 473.4 206.52 473.4C205.933 473.4 205.413 473.6 204.96 474C204.533 474.373 204.32 474.853 204.32 475.44H204.2ZM198.84 475.44C198.813 474.853 198.587 474.373 198.16 474C197.76 473.6 197.253 473.4 196.64 473.4C196.64 473.4 196.52 473.4 196.28 473.4C196.067 473.4 195.96 473.4 195.96 473.4V473H198.92V475.44H198.84ZM225.852 473.04L233.372 486.04L228.052 486.64L219.292 473.04H225.852ZM233.612 486.12V497H227.852V486.2L233.612 486.12ZM239.292 473.04H242.252L233.212 486.92L231.332 486.56L239.292 473.04ZM237.852 475.48C238.145 474.973 238.145 474.507 237.852 474.08C237.558 473.627 237.158 473.4 236.652 473.4C236.652 473.4 236.572 473.4 236.412 473.4C236.252 473.4 236.172 473.4 236.172 473.4V473H244.772V473.4H244.252C243.532 473.4 242.852 473.6 242.212 474C241.598 474.373 241.105 474.827 240.732 475.36L237.852 475.48ZM227.252 475.48L220.772 475.36C220.398 474.8 219.905 474.333 219.292 473.96C218.678 473.587 217.998 473.4 217.252 473.4H216.772V473H228.932V473.4C228.932 473.4 228.852 473.4 228.692 473.4C228.558 473.4 228.492 473.4 228.492 473.4C227.958 473.4 227.545 473.627 227.252 474.08C226.985 474.533 226.985 475 227.252 475.48ZM227.972 494.48V497H225.132V496.6C225.158 496.6 225.238 496.6 225.372 496.6C225.532 496.6 225.612 496.6 225.612 496.6C226.225 496.6 226.745 496.4 227.172 496C227.598 495.573 227.825 495.067 227.852 494.48H227.972ZM233.532 494.48H233.612C233.638 495.067 233.865 495.573 234.292 496C234.745 496.4 235.265 496.6 235.852 496.6C235.852 496.6 235.932 496.6 236.092 496.6C236.252 496.6 236.332 496.6 236.332 496.6V497H233.532V494.48ZM282.321 485.32L282.681 492.2C282.095 493.187 281.308 494.08 280.321 494.88C279.335 495.68 278.108 496.333 276.641 496.84C275.175 497.32 273.441 497.56 271.441 497.56C268.188 497.533 265.335 496.947 262.881 495.8C260.455 494.627 258.575 492.96 257.241 490.8C255.908 488.64 255.241 486.027 255.241 482.96C255.241 479.973 255.895 477.4 257.201 475.24C258.508 473.053 260.375 471.373 262.801 470.2C265.255 469.027 268.175 468.44 271.561 468.44C273.695 468.44 275.601 468.653 277.281 469.08C278.988 469.507 280.415 470.027 281.561 470.64L281.601 477.48H281.241C280.521 474.84 279.348 472.96 277.721 471.84C276.095 470.693 274.188 470.12 272.001 470.12C269.868 470.12 268.041 470.64 266.521 471.68C265.001 472.72 263.828 474.187 263.001 476.08C262.175 477.973 261.761 480.24 261.761 482.88C261.761 485.52 262.148 487.8 262.921 489.72C263.721 491.64 264.841 493.133 266.281 494.2C267.748 495.267 269.468 495.827 271.441 495.88C273.495 495.88 275.228 495.547 276.641 494.88C278.055 494.213 279.188 493.107 280.041 491.56C280.921 490.013 281.575 487.933 282.001 485.32H282.321ZM300.172 472.48C302.306 472.48 304.239 472.773 305.972 473.36C307.706 473.92 309.199 474.747 310.452 475.84C311.706 476.933 312.666 478.253 313.332 479.8C314.026 481.347 314.372 483.093 314.372 485.04C314.372 486.96 314.026 488.693 313.332 490.24C312.666 491.76 311.706 493.067 310.452 494.16C309.199 495.253 307.706 496.093 305.972 496.68C304.239 497.24 302.306 497.52 300.172 497.52C298.066 497.52 296.146 497.24 294.412 496.68C292.679 496.093 291.186 495.253 289.932 494.16C288.679 493.067 287.719 491.76 287.052 490.24C286.386 488.693 286.052 486.96 286.052 485.04C286.052 483.093 286.386 481.347 287.052 479.8C287.719 478.253 288.679 476.933 289.932 475.84C291.186 474.747 292.679 473.92 294.412 473.36C296.146 472.773 298.066 472.48 300.172 472.48ZM300.172 495.96C301.799 495.96 303.212 495.52 304.412 494.64C305.639 493.733 306.572 492.467 307.212 490.84C307.879 489.213 308.212 487.28 308.212 485.04C308.212 482.773 307.879 480.827 307.212 479.2C306.572 477.547 305.639 476.28 304.412 475.4C303.212 474.493 301.799 474.04 300.172 474.04C298.572 474.04 297.172 474.493 295.972 475.4C294.772 476.28 293.839 477.547 293.172 479.2C292.506 480.827 292.172 482.773 292.172 485.04C292.172 487.28 292.506 489.213 293.172 490.84C293.839 492.467 294.772 493.733 295.972 494.64C297.172 495.52 298.572 495.96 300.172 495.96ZM318.995 472.44L342.475 493.08L342.875 497.52L319.435 476.88L318.995 472.44ZM319.155 494.56V497H316.195V496.6C316.195 496.6 316.302 496.6 316.515 496.6C316.729 496.6 316.835 496.6 316.835 496.6C317.449 496.6 317.969 496.413 318.395 496.04C318.822 495.64 319.035 495.147 319.035 494.56H319.155ZM324.515 494.56C324.542 495.147 324.769 495.64 325.195 496.04C325.622 496.413 326.129 496.6 326.715 496.6C326.715 496.6 326.822 496.6 327.035 496.6C327.275 496.6 327.395 496.6 327.395 496.6V497H324.435V494.56H324.515ZM318.995 472.44L324.515 478.44V497H319.035V477C319.035 475.64 318.969 474.547 318.835 473.72C318.702 472.867 318.635 472.44 318.635 472.44H318.995ZM342.835 473V492.84C342.835 493.773 342.862 494.6 342.915 495.32C342.995 496.013 343.062 496.56 343.115 496.96C343.195 497.333 343.235 497.52 343.235 497.52H342.875L337.355 491.16V473H342.835ZM342.715 475.44V473H345.715V473.4C345.715 473.4 345.595 473.4 345.355 473.4C345.142 473.4 345.035 473.4 345.035 473.4C344.449 473.4 343.929 473.6 343.475 474C343.049 474.373 342.835 474.853 342.835 475.44H342.715ZM337.355 475.44C337.329 474.853 337.102 474.373 336.675 474C336.275 473.6 335.769 473.4 335.155 473.4C335.155 473.4 335.035 473.4 334.795 473.4C334.582 473.4 334.475 473.4 334.475 473.4V473H337.435V475.44H337.355ZM356.047 472.48C356.581 472.48 357.221 472.507 357.967 472.56C358.741 472.613 359.501 472.68 360.247 472.76C360.994 472.813 361.647 472.893 362.207 473C362.794 473.08 363.194 473.16 363.407 473.24L362.887 478.12H362.527C362.527 476.893 362.101 475.92 361.247 475.2C360.394 474.48 359.167 474.12 357.567 474.12C356.287 474.12 355.247 474.4 354.447 474.96C353.674 475.52 353.261 476.267 353.207 477.2C353.154 477.68 353.234 478.12 353.447 478.52C353.687 478.893 354.007 479.227 354.407 479.52C354.834 479.813 355.301 480.107 355.807 480.4L362.087 484.28C363.154 484.813 363.994 485.587 364.607 486.6C365.221 487.613 365.487 488.84 365.407 490.28C365.327 491.773 364.887 493.067 364.087 494.16C363.314 495.253 362.234 496.093 360.847 496.68C359.487 497.24 357.874 497.52 356.007 497.52C354.861 497.52 353.794 497.427 352.807 497.24C351.821 497.053 350.967 496.8 350.247 496.48C349.554 496.16 349.021 495.8 348.647 495.4C348.434 494.867 348.341 494.227 348.367 493.48C348.394 492.707 348.514 491.947 348.727 491.2C348.941 490.427 349.207 489.787 349.527 489.28H349.847C349.767 490.48 349.981 491.587 350.487 492.6C351.021 493.613 351.794 494.427 352.807 495.04C353.821 495.627 355.034 495.92 356.447 495.92C357.994 495.92 359.154 495.56 359.927 494.84C360.701 494.12 361.087 493.28 361.087 492.32C361.087 491.6 360.847 490.96 360.367 490.4C359.914 489.813 359.154 489.24 358.087 488.68L352.407 485.08C351.074 484.387 350.101 483.467 349.487 482.32C348.901 481.173 348.687 479.92 348.847 478.56C348.981 477.28 349.354 476.187 349.967 475.28C350.607 474.373 351.447 473.68 352.487 473.2C353.527 472.72 354.714 472.48 356.047 472.48ZM363.407 472.84L363.367 473.56H359.087V472.84H363.407ZM376.236 473V488.08C376.236 490.533 376.796 492.453 377.916 493.84C379.063 495.227 380.649 495.92 382.676 495.92C384.783 495.92 386.409 495.267 387.556 493.96C388.729 492.653 389.329 490.84 389.356 488.52V473H391.996V488.28C391.996 491.133 391.116 493.387 389.356 495.04C387.623 496.693 385.156 497.52 381.956 497.52C378.089 497.52 375.209 496.707 373.316 495.08C371.423 493.427 370.476 491.173 370.476 488.32V473H376.236ZM370.556 473V475.08H370.476C370.449 474.573 370.263 474.16 369.916 473.84C369.569 473.52 369.143 473.36 368.636 473.36C368.636 473.36 368.543 473.36 368.356 473.36C368.169 473.36 368.076 473.36 368.076 473.36V473H370.556ZM378.596 473V473.36C378.596 473.36 378.503 473.36 378.316 473.36C378.129 473.36 378.036 473.36 378.036 473.36C377.529 473.36 377.103 473.52 376.756 473.84C376.409 474.16 376.236 474.573 376.236 475.08H376.156V473H378.596ZM389.436 473V475.08H389.356C389.329 474.573 389.143 474.16 388.796 473.84C388.449 473.52 388.036 473.36 387.556 473.36C387.556 473.36 387.463 473.36 387.276 473.36C387.089 473.36 386.996 473.36 386.996 473.36V473H389.436ZM394.356 473V473.36C394.356 473.36 394.263 473.36 394.076 473.36C393.916 473.36 393.836 473.36 393.836 473.36C393.329 473.36 392.889 473.52 392.516 473.84C392.169 474.16 391.996 474.573 391.996 475.08H391.916V473H394.356ZM404.999 473V497H399.239V473H404.999ZM414.359 495.4L415.279 497H404.919V495.4H414.359ZM412.999 484.32V485.92H404.919V484.32H412.999ZM414.799 473V474.6H404.919V473H414.799ZM416.919 489.64L415.399 497H408.479L409.719 495.4C410.866 495.4 411.879 495.173 412.759 494.72C413.666 494.24 414.439 493.573 415.079 492.72C415.719 491.84 416.213 490.813 416.559 489.64H416.919ZM412.999 485.84V489.36H412.599V489.04C412.599 488.16 412.319 487.427 411.759 486.84C411.226 486.253 410.493 485.947 409.559 485.92V485.84H412.999ZM412.999 480.88V484.4H409.559V484.32C410.493 484.293 411.226 483.987 411.759 483.4C412.319 482.787 412.599 482.04 412.599 481.16V480.88H412.999ZM414.799 474.52V478.76H414.399V478.4C414.399 477.227 414.079 476.307 413.439 475.64C412.826 474.973 411.933 474.627 410.759 474.6V474.52H414.799ZM414.799 472.4V473.36L410.599 473C411.373 473 412.186 472.933 413.039 472.8C413.893 472.64 414.479 472.507 414.799 472.4ZM399.319 494.48L399.519 497H396.559V496.6C396.559 496.6 396.639 496.6 396.799 496.6C396.959 496.6 397.053 496.6 397.079 496.6C397.666 496.6 398.159 496.4 398.559 496C398.986 495.573 399.213 495.067 399.239 494.48H399.319ZM399.319 475.52H399.239C399.213 474.907 398.986 474.4 398.559 474C398.159 473.6 397.666 473.4 397.079 473.4C397.053 473.4 396.959 473.4 396.799 473.4C396.639 473.4 396.559 473.4 396.559 473.4V473H399.519L399.319 475.52ZM427.421 473V497H421.661V473H427.421ZM436.741 495.4L437.701 497H427.341V495.4H436.741ZM439.381 489.64L437.821 497H430.901L432.141 495.4C433.288 495.4 434.301 495.173 435.181 494.72C436.088 494.24 436.861 493.573 437.501 492.72C438.141 491.84 438.634 490.813 438.981 489.64H439.381ZM421.741 494.48L421.941 497H418.981V496.6C418.981 496.6 419.061 496.6 419.221 496.6C419.381 496.6 419.474 496.6 419.501 496.6C420.088 496.6 420.581 496.4 420.981 496C421.408 495.573 421.634 495.067 421.661 494.48H421.741ZM427.341 475.52V473H430.101V473.4C430.074 473.4 429.981 473.4 429.821 473.4C429.688 473.4 429.621 473.4 429.621 473.4C429.034 473.4 428.528 473.6 428.101 474C427.674 474.4 427.448 474.907 427.421 475.52H427.341ZM421.741 475.52H421.661C421.634 474.907 421.408 474.4 420.981 474C420.554 473.6 420.048 473.4 419.461 473.4C419.434 473.4 419.341 473.4 419.181 473.4C419.048 473.4 418.981 473.4 418.981 473.4V473H421.741V475.52ZM455.524 472.48C457.657 472.48 459.591 472.773 461.324 473.36C463.057 473.92 464.551 474.747 465.804 475.84C467.057 476.933 468.017 478.253 468.684 479.8C469.377 481.347 469.724 483.093 469.724 485.04C469.724 486.96 469.377 488.693 468.684 490.24C468.017 491.76 467.057 493.067 465.804 494.16C464.551 495.253 463.057 496.093 461.324 496.68C459.591 497.24 457.657 497.52 455.524 497.52C453.417 497.52 451.497 497.24 449.764 496.68C448.031 496.093 446.537 495.253 445.284 494.16C444.031 493.067 443.071 491.76 442.404 490.24C441.737 488.693 441.404 486.96 441.404 485.04C441.404 483.093 441.737 481.347 442.404 479.8C443.071 478.253 444.031 476.933 445.284 475.84C446.537 474.747 448.031 473.92 449.764 473.36C451.497 472.773 453.417 472.48 455.524 472.48ZM455.524 495.96C457.151 495.96 458.564 495.52 459.764 494.64C460.991 493.733 461.924 492.467 462.564 490.84C463.231 489.213 463.564 487.28 463.564 485.04C463.564 482.773 463.231 480.827 462.564 479.2C461.924 477.547 460.991 476.28 459.764 475.4C458.564 474.493 457.151 474.04 455.524 474.04C453.924 474.04 452.524 474.493 451.324 475.4C450.124 476.28 449.191 477.547 448.524 479.2C447.857 480.827 447.524 482.773 447.524 485.04C447.524 487.28 447.857 489.213 448.524 490.84C449.191 492.467 450.124 493.733 451.324 494.64C452.524 495.52 453.924 495.96 455.524 495.96Z" fill="#6B1E1E"/>
</svg>
